<svg viewBox="0 0 1024 1024"><path d="M512 938.667C276.352 938.667 85.333 747.648 85.333 512S276.352 85.333 512 85.333a426.027 426.027 0 0 1 284.032 108.203 41.813 41.813 0 0 1-38.315 71.68 56.747 56.747 0 0 1-20.01-9.216c-32.342-24.192-47.531-36.608-73.515-49.579a341.333 341.333 0 1 0 6.613 607.83c12.331-6.528 51.627-33.963 87.552-54.102a39.168 39.168 0 0 1 46.294 62.422A425.77 425.77 0 0 1 512 938.667z m298.667-282.624V554.667H512a42.667 42.667 0 0 1 0-85.334h298.667V367.957a12.8 12.8 0 0 1 20.778-9.984L1003.18 495.36a21.333 21.333 0 0 1 0 33.28L831.445 666.027a12.8 12.8 0 0 1-20.778-9.984z"></path></svg>