<svg viewBox="0 0 1024 1024">
<path d="M512 0c282.784 0 512 229.216 512 512s-229.216 512-512 512S0 794.784 0 512 229.216 0 512 0z m0 64a446.24 446.24 0 0 0-195.04 44.544l0.384-0.704c-1.28 1.28-0.288 2.56 0.736 3.392l3.616 2.56c0.64 0.32 1.344 0.512 2.048 0.512v2.176l2.432 1.056 2.144 0.768 1.92 0.32s2.144 0 2.144 2.144c0 2.176-2.176 2.176-2.176 2.176v4.288l1.504 0.288a3.936 3.936 0 0 1 2.816 4.032l-1.344 0.8c-0.8 0.288-1.92 0.288-2.976-0.8 0 2.176 0 2.176-2.144 4.32h-8.64c-0.8 0-1.024 1.088-0.896 2.304l0.96 4.16v2.144l2.144 0.288c1.088 0.256 2.176 0.8 2.176 1.888 0 0 0 2.144 2.144 0 6.4-2.688 15.04 1.6 17.184 3.776h2.176c0.8 0 2.048 1.056 3.2 2.304l4.8 6.368h-4.288l-2.432 1.056a12.928 12.928 0 0 1-3.968 1.088c-2.176 0-2.176 2.176 0 2.176l5.792-0.064-1.28 1.088c-1.408 1.216-2.688 2.464-2.688 2.944l2.432 2.496-0.832 1.056c-0.256 0.544-0.256 1.088 0.832 1.088l-1.088 2.432a12.928 12.928 0 0 0-1.088 4.032l-10.784 8.64h-1.536s0 0.96-0.64 1.6l-1.536 0.544c-2.144 0-6.464 3.776-8.64 3.776h-4.288c-1.088 0-1.088 0.544-0.768 1.088l0.832 1.056c2.144 2.176-2.176 4.32-4.32 4.32v2.144l-2.144 2.176c-1.28 1.28-1.088 1.824-0.192 1.984l2.336 0.16-4.32 8.64s-4.32 0-4.32 2.144v2.144c0 2.176-8.64 6.464-10.752 4.32l-10.784 4.32c1.056 0 1.056 0.544 0.864 1.056l-0.832 1.088h-6.464c0 2.144 2.176 2.144 4.32 2.144l1.6 2.272c0.32 0.64 0.544 1.344 0.544 2.048h-2.144v2.176l2.304 1.376c0.544 0.448 0.704 0.768-0.16 0.768v1.6h-2.144l-2.144 4.32-2.176 2.176a10.016 10.016 0 0 0-4.032 3.072l-0.256 0.672h2.144l2.144 4.32-1.6 3.392-2.56 6.208c-0.64 1.92-0.832 3.392-0.128 3.392h2.144l-0.256 2.432a8 8 0 0 1-1.92 4.032h-8.608s0 2.176-2.144 2.176h-4.32c0-1.088-1.568-2.176-3.2-2.976l-3.2-1.344 2.144-2.176s2.144 0 2.144-2.144l-1.376-0.16c-1.024-0.224-2.048-0.704-0.768-1.984h-2.144l-4.32 2.144h-2.176l-2.144 2.144h-3.776V267.52c0-2.176-8.576-4.32-10.72-4.32l-4.32-4.32c-2.144 0-2.144-2.144-2.144-2.144l-2.144-4.32c-1.088 0-1.088-1.088-0.832-2.144l0.832-2.176h-4.32v-1.6l-4.32-2.144v-2.176l-0.16-1.76-1.92-6.912 0.8-2.144c0.256-1.088 0.256-2.176-0.832-2.176h-2.144c0.864 0 0.704-0.704 0.16-1.504l-2.304-2.784c-1.6 0-0.832-1.216-0.32-1.856l2.464-2.464c1.088 0 1.088-0.544 0.8-1.088l-0.8-1.088-2.144-2.144V212.48s1.184-2.432 2.688-3.616l1.6-0.704c1.088 0 1.088-0.512 0.832-1.056l-0.832-1.088c2.176 0 2.176-2.144 4.32-2.144h2.176l1.6-0.64 2.688-3.68V195.2h2.176c1.056 0 1.056-0.544 0.736-1.056l-0.8-1.088 2.144-4.32h-8.64l-6.112-6.208-4.32 4h1.92c2.112 0 2.112 2.144 4.288 2.144a5.376 5.376 0 0 1-2.176-0.512l1.6 0.864c1.632 1.024 2.944 2.144 3.04 3.104l-0.32 0.928c0 2.144-2.144 2.144-4.32 2.144-2.144 0-4.288 2.176-4.288 2.176-1.088 0-2.656-1.088-3.936-2.112l-2.56-2.24c-12.928 12.96-23.648 25.344-34.368 40.448l3.232 1.344c1.6 0.8 3.232 1.92 3.232 2.976l-4.32 2.144 8.032 0.96c2.112 0.128 4-0.096 4.864-0.96 2.144 2.144 2.144 2.144 4.32 2.144l-8.64 8.64c-0.96 0-1.44-0.384-1.76-0.864l-0.384-1.12v6.304l-3.008-1.6c-2.496-1.472-5.568-3.584-5.568-4.864l-2.432-2.24c-2.048-1.856-4.832-4.16-6.144-4.256 0.032 0.96-0.64 1.824-1.568 2.048l-0.32 0.448 1.856 1.824h-2.176l-2.144 2.176h2.144c2.176 2.144 2.176 3.744 4.32 5.92 0 0 2.144 0 2.144-2.176 2.176 0 2.176 2.176 4.32 2.176s2.144 0 2.144 2.144h-2.144l3.776 2.688c1.088 1.088 1.6 2.72 0.544 5.952l-1.344-2.176c-0.832-1.056-1.92-2.144-2.976-2.144 0 2.144 2.144 4.32 2.144 8.64 0 0-2.144 2.144 0 4.288l-2.048-0.736-12.48-7.232a19.936 19.936 0 0 0-7.04-2.752c0 4.32 6.496 4.32 8.64 6.464l4.064 3.52c1.472 1.28 2.336 3.136 2.4 5.12-4.288-2.176-6.464-2.176-10.784-4.32H141.44l-2.144-2.176-4.416-1.664-4.576 7.296-1.184 5.152c2.144 0 4.288 2.176 8.64 2.176h2.144v2.144c-4.32 2.144 2.144 10.784 0 12.928l1.6 0.288a7.584 7.584 0 0 1 4.864 4.032v2.144c2.144 0 4.288 0 6.4-2.144l1.6-2.688c0.96 0 1.536 0.416 1.792 0.896l0.384 1.184 0.32-2.464c0.608-1.92 1.824-2.304 1.824-3.936-1.28-2.56-0.256-4.416 0.768-5.44l1.408-1.088 4.576 4.864 4.64 5.664c0.544 0.768 1.056 1.6 1.504 2.464 0 4.32 6.464 8.64 6.464 10.784 0 0-4.32 0-4.32 2.144l4.32 4.32 1.92 1.024 4.768 4.416c0.704 0.64 1.408 1.088 1.92 1.088l2.272 0.64 6.208 2.976c0.704 0.32 1.472 0.544 2.24 0.64 0 2.144-2.144 2.144-4.288 2.144l-1.664 0.64-4.544 3.264-2.368 2.048c1.408 0 2.88 0 4.32-0.64l7.552-5.024c1.6-0.832 3.2-0.832 5.376 1.344l2.112 2.144c2.144 0 4.288 2.176 4.288 4.32v6.464c-2.144 2.144-4.288 4.32-6.464 4.32h-8.64l-4.288 4.32c-0.544 0.512-2.304 0.96-4.8 1.216l-8.768 0.64-12.256 0.288h-10.72c-1.728 0.928-2.432 1.76-2.752 2.56l-0.704 2.336a2.688 2.688 0 0 1-0.864 1.088c-2.144 0-15.072 6.464-19.328 17.248l8.64-8.64c2.848-1.44 5.696-2.88 9.184-4.288l5.824-2.176c4.32-2.144 10.784-2.144 12.928 2.176l-4.288 4.288 0.32 4.256c-2.496 0-8.96 2.176-8.96 4.32H150.08v2.144l-8.64 4.32-2.144 2.176-3.776 2.144c-1.088 0-1.6 1.088-1.824 2.144l-0.288 2.176h2.176s-2.176 0-2.176 2.144c2.176 0 2.176 2.144 2.176 2.144h2.144v2.176h-4.32v-2.176l-2.144 1.6v-1.6h-2.144v2.176a42.4 42.4 0 0 0-15.104 4.352h2.144c0 2.176-2.144 4.32-2.144 6.464l-4.32 3.776v-2.144c-2.144 0-2.144-2.176-4.288-2.176l0.576 2.112 1.6 2.24v2.144l-2.144 2.144-4.288-2.144v-4.32h-2.176c2.176 2.144 0 2.144 0 4.32v2.144l-2.144-2.144c0 2.144 2.144 2.144 2.144 4.288l1.92 10.784a18.688 18.688 0 0 1 0.256 2.176l-2.176 2.144h-2.144l-2.176 1.6h4.32l-4.32 2.176-2.144 4.32h-4.32c-2.144 0-12.864 15.072-12.864 17.216 0 4.32 4.32 8.64 4.32 12.96l0.736 3.968 1.408 4.704c2.144 4.32-2.144 8.64-2.144 10.784H77.44l-6.88-16.192-2.272-6.304-2.56-2.784a463.04 463.04 0 0 0-1.12 62.72c1.6 15.584 3.52 30.944 6.4 45.056l16.672 11.84c6.4 4.32 12.48 8 13.44 7.04l-0.224-1.728-1.92-6.912c3.104-1.408 10.176-1.44 17.856-1.056l11.584 1.024 17.312 2.144c1.92 0 13.216 11.168 16.384 15.616l0.864 1.696c0 0.832 1.024 2.048 2.368 3.328l6.208 5.28 21.568 2.144c0.896 0 3.392 2.816 6.144 6.272l5.312 7.2c1.6 2.336 2.912 4.32 3.552 5.408l-2.144 6.464-5.28 6.24c-1.248 1.344-2.464 2.368-3.328 2.368l2.4-0.256a8 8 0 0 0 4.064-1.888c0 2.144 6.464 4.32 8.64 4.32l2.24-1.6c1.824-1.472 4.16-3.584 4.16-4.864h4.288l10.784 4.288c2.176 0 6.464 4.32 8.64 4.32 2.144 0 8.64 2.176 10.752 2.176h8.576c4.32 2.144 8.64 6.464 12.928 10.752l1.632 0.96 4.096 0.32a9.696 9.696 0 0 1 2.88 0.96c2.144 0 4.288 10.752 4.288 12.928-2.144 6.464-4.32 10.752-8.64 15.072l-7.2 11.2a16.064 16.064 0 0 1-1.408 1.728l-2.144-2.144-3.904 21.344c-0.8 5.28-1.184 9.696-0.352 10.464v4.288l-4.8 10.24a20.224 20.224 0 0 0-1.664 4.864 4.64 4.64 0 0 0-4.32 4.32h-12.928l-4.32 4.32h-2.176l-2.24 1.056-6.144 4.416c-0.96 0.608-1.792 1.024-2.336 1.024-0.544 0-1.344 1.856-2.24 4.64l-2.88 10.176-3.424 14.848c1.28 6.624-4.64 13.824-9.984 18.88l-5.568 4.928a448.128 448.128 0 0 0 756.064-254.272v-3.136l-0.96-1.056-1.152 0.096v-4.32l-0.64-1.6-3.68-2.72h-2.144c0-2.88 0.96-5.76 1.6-8l0.544-2.816c0-1.088 0.544-2.688 1.088-4.032l1.088-2.432h-2.176v-8.64c0-1.728-1.088-2.4-2.24-2.752l-3.52-0.672c-0.448-0.16-0.704-0.448-0.704-0.864 0-2.176 0-6.464-2.144-8.64-2.176 0-2.176-4.32-4.32-4.32 0 3.232-0.544 4.32-1.6 4.864l-2.88 0.864a12.128 12.128 0 0 0-1.92 0.768l-1.408 2.304c-0.448 0.544-0.768 0.704-0.768-0.16h-2.144v-2.144h-1.248l-0.416 0.16c0.672-1.6 1.6-3.04 1.6-4.48 0-4.32 0-8.64-2.144-10.784 0 0-2.112 0-2.112-2.144h2.144c0-2.176 0-4.32-2.144-4.32h-2.144v-2.176h-2.176c-2.144 0-3.2-2.688-4.032-5.632l-1.44-5.632a4.736 4.736 0 0 0-0.96-1.664h-2.176s0-2.144-2.176-2.144v4.32c-1.6 0-1.984 0-2.08 0.896v3.392h-2.176l-0.096-1.888-0.256 0.96c-0.32 0.512-0.832 0.96-1.792 0.96-2.144 0-4.32 0-4.32 2.144v2.144l-2.688 3.68a2.112 2.112 0 0 1-1.6 0.64c-2.176 0-4.32 0-4.32 2.144-2.176 2.176-4.32 4.32-4.32 6.464h-2.144c-2.176 0-2.176 2.176-4.32 2.176l-1.28 0.256a7.552 7.552 0 0 0-2.976 1.92l-0.256 1.312a7.584 7.584 0 0 1-1.92 2.976h-4.288s0 2.144-2.176 2.144h-3.744v10.784c2.144 4.32-2.176 8.64-2.176 10.784v6.464h-2.144c0 2.144 0 2.144-2.176 4.32-2.144 0-2.144 0-4.288 2.144v2.144s-2.176 2.176-4.256 2.176c0 0-2.176-2.176-2.176-4.32s0-4.32-2.144-6.464-2.144-6.464-4.32-8.64l-2.144-2.144v-4.32c0-2.144-2.176-6.464-2.176-8.64-2.144-4.288-4.288-6.432-6.464-10.752 0-4.32 0-6.464-2.144-10.784 0-2.144 0-4.32-2.144-8.64 0-2.144 2.144-2.144 2.144-2.144l-2.144-2.144v-4.32h-2.112v2.176c2.144 2.144-2.144 4.288-4.32 4.288h-2.144c-0.864 0-2.368-1.056-4.096-2.4l-4.896-4.48a191.36 191.36 0 0 1-1.728-1.728l2.56 0.48c1.28 0.224 2.56-0.064 3.84-2.688v-2.176c-4.32 2.176-8.64 0-10.784-2.144 0 0 0-2.144-2.144-2.144-2.112 0-2.112 0-4.256-2.176 0-2.144 0-2.144-2.176-4.288h-2.144c0-2.176 0-2.176-2.144-4.32l-6.464 1.6c-2.72 0.544-5.408 0.544-6.464-1.6-2.112 0-2.112 0-4.288 2.144h-10.752c-2.176 0-2.176 0-4.32-2.144h-6.464l-2.112-2.144h-4.32s-2.144 0-4.288-2.176c0-2.144-2.176-2.144-2.176-4.32v-2.144h-8.64l-2.144 1.6a4.736 4.736 0 0 1-2.144 0.544c-2.112 0-2.112-2.144-4.256-2.144s-4.32 0-6.464-2.144l-2.144-2.176c-2.176 0-4.32 0-6.496-2.144 0-2.144-2.144-4.32-4.288-6.464V444.8l-1.6-2.208a4.736 4.736 0 0 1-0.512-2.08h-4.32v-2.176l-2.144 2.176h-4.32v2.144l-2.144 2.144h2.144c0 4.32 2.176 6.496 4.32 10.784l3.2 1.344c1.632 0.832 3.264 1.92 3.264 2.976v2.144l4.32 10.784s2.144 0 2.144 2.176l0.8 0.32c0.288 0.256 0.288 0.8-0.8 1.888h15.104l2.08-2.176s0-2.144 2.176-2.144c2.144-2.144 4.288-2.144 6.464-4.32l2.144-2.144v8.64c0 2.144 2.176 4.288 4.32 4.288s2.144 2.144 4.32 2.144h2.144l0.608 1.6 3.648 2.72s2.144 0 2.144 2.176c0 2.144-2.144 2.144-2.144 4.288l-2.144 2.176-0.288 1.344a7.584 7.584 0 0 1-1.888 2.944h-2.144v6.464c-2.144 0-4.32 0-6.464 2.176v2.144c-2.144 2.176-2.144 0-4.32 0l-0.896 0.384-0.288 2.368a3.456 3.456 0 0 1-0.928 1.568h-6.464c-1.44 0-2.848 0.96-4.288 1.6l-2.176 0.544c-2.144 0-4.288 2.176-4.288 2.176 0 2.144 0 2.144-2.176 2.144-4.32 2.144-8.64 2.144-12.864 4.32l-2.176 2.144h-4.288c-2.176 0-4.32 2.176-6.496 2.176h-4.288l-2.176 2.144c-2.144 2.144-8.544 2.144-10.72 0v-4.32c0-2.144-2.144-6.464-2.144-8.64v-6.432c0-2.176-2.176-4.32-4.32-6.496 0 0-2.144 0-2.144-2.144-2.176-2.144-2.176-6.464-4.32-8.64l-3.616-2.688-0.64-1.6c0-2.144-2.144-2.144-2.144-4.32v-8.64c0-2.144-2.176-4.288-4.32-6.432-2.176-2.176-4.32-2.176-6.464-4.32 0-2.176-2.176-4.32-2.176-6.464a16.32 16.32 0 0 1-4.288-8.64l-4.32-2.144v-7.552c-2.176-2.144-2.176-6.464-4.32-10.784 2.144-2.144 2.144-4.288 2.144-6.464l2.496-5.696 2.816-5.568a9.44 9.44 0 0 1 1.216-1.728c0-2.144 0-4.288-2.144-6.464v-1.6l-2.432-2.176c-1.344-1.056-2.976-2.144-4.032-2.144l-2.176 2.144c-2.144 0-4.288 2.176-6.464 0-2.144 0-2.144-2.144-4.288-2.144-2.176 0-4.32-2.144-6.496-2.144v4.288h-6.464l-2.08-2.144h-3.232l-4.32-2.144v-3.776c-2.144 0-2.144 0-4.32-2.176l1.6-2.24a4.736 4.736 0 0 0 0.576-2.048v-2.176l2.144-2.144h-4.32v-2.176c1.472 0 2.912-0.96 4.32-1.6l3.296-0.768 11.776-1.92s-4.288 0-4.288-2.176c0 0 6.464 0 6.464-2.144 1.6 0 3.2 1.184 4.832 0.928l6.272-3.776a11.168 11.168 0 0 1 3.936-1.472c4.288 0 6.464 2.176 8.64 0l4.288 2.176c0 2.144 4.32 4.288 6.464 4.288h15.04c4.32 0 6.464-2.144 6.464-8.64v-1.6a22.272 22.272 0 0 0-4.032-2.944l-2.432-1.344-2.24-1.6a4.736 4.736 0 0 0-2.08-0.576 22.272 22.272 0 0 0-4.032-3.008l-2.432-1.344s0-2.176-2.144-2.176h-2.176s-2.144-2.144-2.144-4.288h4.32c0-2.176 0-2.176 2.144-4.32h2.144c0-2.144-2.144-2.144-4.288-2.144l6.464-2.176-1.92 0.224-8.864 1.92c-2.144 0-10.784 2.176-10.784 4.32l-5.536-0.096c-3.776-0.224-8.192-0.768-9.504-2.048l-6.464 2.432c-3.2 1.344-6.464 2.944-6.464 4.032 0 0 0 2.144-2.112 2.144-4.288 0-4.288 8.64-4.288 8.64H582.4a13.632 13.632 0 0 1-1.056 4.096l-1.088 2.432c1.088 0 2.144 1.056 2.976 2.144l1.344 2.144c2.144 0 2.144 0 4.288 2.176l-2.4 0.256a8 8 0 0 0-4.064 1.92h-2.144v2.144l-2.432 1.344a22.272 22.272 0 0 0-4 2.944v-2.688c0-0.864-1.376-1.408-3.072-1.728l-4.608-0.416h-0.928a8 8 0 0 0-1.888 4.032l-0.256 2.432-2.176-2.176h-4.288c0 2.176 2.144 4.32 4.288 6.496 0 0-2.144 2.144-4.288 2.144 2.144 0 6.464 2.144 6.464 4.32v2.144l-4.64-2.816a11.168 11.168 0 0 0-4-1.504h-6.464l-2.144-2.144s2.144 0 2.144-2.144c-2.144 0-4.32-4.32-6.464-4.32l-2.144-2.176v-6.464l-2.112-4.288-1.728-1.536-6.912-4.96-2.144-2.144h-2.144l-4.32-4.32s0-4.288-4.32-6.464l-1.568 2.176a4.736 4.736 0 0 0-0.512 2.144c0 7.68-1.088 8.8-1.728 8.8l-0.448-0.192c-2.144 0-4.32 4.32-4.32 6.496 0 2.144 0.544 3.2 1.376 4.032l2.944 2.432s2.176 0 2.176 2.144v4.32c0 2.144 2.144 4.32 4.288 6.464l1.92 0.928 3.808 0.256c0.48 0.16 0.704 0.416 0.704 0.96v2.176c6.464 2.144 10.784 4.288 12.928 8.64v2.112s-2.144 0-2.144-2.144l-4.32-2.144a4.64 4.64 0 0 0-4.32 4.288l2.144 2.176v2.144l-1.344 0.288a7.552 7.552 0 0 0-2.944 1.888v2.144c-2.176 0-2.176 2.144-2.176 2.144h-2.144v-2.688c2.144 0 2.144-2.144 0-2.144h2.144l-2.144-8.64h-2.144s-2.176 0-2.176-2.144v-1.6h-4.256c0-1.76-0.32-2.432-1.088-2.784l-3.072-0.672a11.168 11.168 0 0 1-2.304-0.864c-2.144-2.176-6.464-4.32-8.64-6.464-4.288-2.176-4.288-8.64-6.464-10.784-2.144-2.176-4.256-2.176-8.544 0l-2.176 2.144h-2.144c-2.144 2.144-4.32 4.32-8.64 4.32-2.144 0-2.144-2.176-4.288-2.176h-2.176l-1.056-0.192-1.856-0.768a6.784 6.784 0 0 0-3.52 0.96c-1.696 0.864-2.016 2.048-1.952 3.36l0.512 3.776a2.784 2.784 0 0 1-0.672 1.504c0 2.144-4.32 2.144-4.32 2.144l-1.92 0.928-3.808 0.256c-0.416 0.16-0.704 0.448-0.704 0.96l-1.664 1.216a16.544 16.544 0 0 0-4.832 7.424s0 2.144 2.144 2.144h2.144c-2.144 0-4.288 2.176-4.288 6.496-2.112 0-4.256 0-4.256 2.144 0 1.6 0 2.048-0.96 2.144h-11.936l-1.088 1.6c-2.144 0-2.144 0-2.144 2.176l-2.112-0.544-2.208-1.6a4.64 4.64 0 0 0-4.288-4.32h-8.64v-6.464l-2.144 2.144v-4.288c2.144-2.176 4.288-10.784 2.144-15.104l2.144-4.32c0-2.144-2.144-2.144-2.144-2.144v-1.6c0-1.088 1.088-1.632 2.144-1.92l2.176-0.256v-2.144h6.464c2.144 0 2.144 0 4.32-2.176l1.824 0.768c2.88 0.96 8.64 2.304 13.216-0.768 2.144 0 4.288 2.176 6.464 2.176 0-2.176 2.144-4.32 2.144-8.64v-5.92l2.144 2.144c0-2.144-2.144-2.144-2.144-4.288v-2.176l-0.96-1.28-0.288-0.864h-0.896l-2.176-2.176v-2.144s-2.144 0-2.144-2.144h-2.144c-2.176-2.176-4.32-2.176-8.64-2.176l-2.144-2.144v-4.32h8.64l2.4 0.448c2.048 0.192 4.896 0 6.208-2.656l-1.6-2.208a4.736 4.736 0 0 1-0.576-2.112h4.32v2.176l1.92-0.608 4.704 1.28c0.768 0 1.472-0.128 1.984-0.672l0.384-0.864c0.64-0.864 2.176-2.144 6.048-3.456l0.96-0.704 0.288-3.84a3.552 3.552 0 0 1 0.896-1.92l3.776-1.6 2.176-2.176h4.288l-2.144-2.144 1.6-0.64 2.72-3.68c0-2.144 2.144-2.144 2.144-4.32 0 0 0.928-0.96 2.24-1.6l2.016-0.544c2.144 0 4.32-2.144 6.464-2.144h4.32s2.144 0 2.144 2.144v-2.144l2.176-2.176V301.44h2.144l-2.144-2.176v-4.288h-2.176s0-2.176 2.176-2.176c0-2.144-2.176-2.144 0-4.288 0 0 4.288 0 4.288-2.176l1.088 0.8c0.544 0.288 1.088 0.288 1.088-0.8v-1.6h4.288v2.144h2.176v2.144h-2.176v10.784s2.176 0 2.176 2.176h2.144s0 2.144-2.144 2.144h4.32c0-2.144 6.4-4.32 8.544-4.32 0 2.176 2.176 2.176 4.32 2.176l2.144 0.8c1.088 0.256 2.176 0.256 2.176-0.8l4.48-0.704 7.264-2.976 3.296-0.64c2.144 0 4.288-2.144 4.288 0v2.144c2.176 2.176 4.32 0 6.496-2.144v-2.688h6.464l-0.544-2.432c-0.448-2.88-0.928-7.68 0.544-10.528l2.144-2.144v-1.6l2.144-2.176h4.256l2.176 2.176v2.144c2.144 2.144 4.32 0 6.464-2.144l-0.16-3.84c-0.224-2.144-0.704-3.936-1.984-2.688h-2.176l-0.032-5.824c-2.72 0.736-3.072-0.608-4.8-0.608v-2.144h-2.176l-2.144-2.144c-2.56-1.28-2.88-4.16-2.656-6.272l0.544-2.432-2.144-2.144V246.4l-2.176-2.144c0-2.176 2.176-2.176 2.176-4.32v-2.144h2.144c2.176-2.176 2.176-2.176 2.176-4.32l2.144 2.144 12.864-12.928v-6.464c-2.144 0-2.144 0-4.288-2.144h-6.464l-2.176-2.176-4.288 4.32-1.28 0.96-0.832 0.288v3.072l-2.176 2.144 2.176 2.176c-2.176 0-2.176 2.144-2.176 4.288l-3.712 2.688a2.112 2.112 0 0 0-0.576 1.632h-2.176l-6.464 6.464h-2.144v4.32h-2.144c0 2.144 2.144 2.144 0 6.464h-2.176l0.224 1.504 0.704 3.36c0.096 0.96 0 1.6-0.928 1.6h4.32c0 2.144 2.144 2.144 4.32 4.32 0 2.144 2.144 2.144 2.144 2.144l-1.6 1.408a6.304 6.304 0 0 1-3.36 1.408l-2.24-0.928h0.512l0.224-0.16v-2.208c-0.544 0-0.864 0.256-0.96 0.704l-0.128 1.568-3.776-1.184 1.088 1.056h-0.544l1.088 2.432c0.576 1.28 0.96 2.656 1.088 4.032v8.64c0 2.144-2.176 4.32-2.176 6.464h-6.464l-2.144 2.144v1.6h-6.464v-1.6c-1.6 0-2.016-1.216-2.112-2.688V282.56h2.144l-2.944-2.4c-0.832-0.832-1.344-1.92-1.344-4.064s0-2.144-2.176-4.32v-2.144h-2.144v-6.464c-2.176 0-2.176 0-2.176-2.144l-2.144 2.144h-2.144l-6.848 4.96a21.92 21.92 0 0 0-1.728 1.504c-2.144 0-4.32 2.144-6.464 0 0 0 0 1.184-0.928 0.928l-3.456-2.56a4.736 4.736 0 0 0-2.08-0.512V265.28l4.288-4.288h-8.64v-2.176l4.352-4.288h-4.32l2.144-2.176h-2.144c0-2.144 0-2.144 2.144-2.144l-2.144-2.176v-3.744h4.32l-1.6-2.176c2.144 0 2.144-2.144 4.288-2.144s0-2.176 2.144-2.176c2.176 0 2.176 0 2.176-2.144h6.464c0-2.144 2.144-4.32 4.288-4.32l4.32-2.144c0-2.144 4.32-6.464 6.464-6.464H512l1.344-2.496a22.304 22.304 0 0 1 2.976-4.032l2.144-2.144c0-2.176 0-4.32 4.32-4.32V203.84l2.144-2.176c2.176 0 4.32-2.144 4.32-2.144v-2.144c0-2.176 2.144-4.32 8.576-6.496h2.144v-2.144l2.144-2.144c2.176 0 2.176-2.176 2.176-2.176l1.088-0.864 1.376-0.672a8 8 0 0 0 1.856-2.752l2.144 2.144h4.32c0-2.144 2.144-4.32 4.288-6.464 0 0 4.256 0 6.4-2.144l2.176 2.144c1.088-3.232 2.176-3.776 3.232-3.52l2.176 1.088a2.56 2.56 0 0 0 1.056 0.288l0.544-2.112 1.6-2.24h2.176l2.048-2.464c1.088-1.056 2.688-1.824 6.528-1.824l-2.976 2.432c-0.8 0.8-1.344 1.888-1.344 4.032 0-1.088 1.088-2.688 2.432-4.32l4.032-4.288v4.288l2.976-2.4c0.8-0.832 1.344-1.92 1.344-4.064h4.32c-2.72 2.72-2.72 2.72-2.72 4.864h2.176l0.544-2.112 1.6-2.208 2.048 0.544 2.24 1.6h6.432v2.176c-2.144 2.144-6.464 2.144-10.752 2.144l3.712 2.688c0.416 0.448 0.64 1.024 0.576 1.632h6.464l2.432-1.088a12.928 12.928 0 0 1 4.032-1.056c0 4.288 2.176 4.288 6.496 4.288v2.176l2.144-2.176h8.64l1.664 0.224 6.88 1.92 6.464 5.952c1.408 0 2.88 0.96 4.32 1.6l2.144 0.544c2.176 0 4.32 2.176 6.496 4.32 0 2.144 0 2.144 2.08 4.32 0 2.144-2.144 4.32-4.32 6.464-4.896 3.712-11.904 3.2-18.624 1.6l-13.632-3.744h-4.32l-1.088-0.448-1.824-1.888c-0.768-0.544-1.792-0.704-3.52 0.16l6.496 6.464c2.144 0 4.288 2.176 6.464 2.176 2.144 2.144 0 4.288-2.176 4.288 0 2.176 2.176 8.64 4.32 8.64s4.32 0 4.32 2.144v1.6h4.256l2.528 0.32c1.792 0.192 3.232-0.32 1.792-4.608h-4.32a4.64 4.64 0 0 1-4.32-4.32s0-2.144 2.144-2.144a16.48 16.48 0 0 0 10.784 4.32h6.464c2.176-2.176-2.144-4.32-2.144-8.64 2.144-4.32 8.64-2.144 10.72-8.64 4.32 0 6.464 2.176 10.784 2.176l0.608-1.76a9.92 9.92 0 0 0-0.608-6.848c-2.144 0-2.144 0-2.144-2.176 0 0 2.144-2.144 2.144-4.288 0-2.176-2.144-2.176-2.144-6.496h8.64c2.144 0 4.288 4.32 6.432 6.496-4.288 0-8.64 0-8.64 4.288 4.352 2.176 4.352 6.464 10.752 4.32h2.144c2.176-2.144 0-4.32 2.176-6.464l21.504-6.464c4.288 0 0-4.32 6.464-4.32 0 2.144 6.464 4.32 8.64 2.144 1.6 0 3.2-1.216 4.8-0.896l2.944 1.728c0.8 0.256 1.888 0.256 2.944-0.832l2.176-2.144c2.144-2.144 4.32-2.144 8.64 0 0 0 2.144 2.144 4.288 0 2.144 0 4.32 0 4.32-4.32 0-1.056-1.088-2.144-2.176-2.944l-2.144-1.344c2.144 0 2.144-2.176 4.32-2.176l5.312 0.288c2.176 0.256 4.32 0.8 5.408 1.888 10.784 2.144 19.392 6.464 25.824 12.928l2.144-2.432c1.088-1.344 2.144-2.976 2.144-4.032-2.144 0-4.288 0-4.288-2.176V169.92c-2.176-2.176-4.32 0-6.464-2.176l0.416-1.984 1.92-2.144a435.2 435.2 0 0 0-50.464-35.52l-3.52 3.52c-2.144 0-4.32-2.176-6.464-2.176-4.32 0-6.464 2.144-8.64-2.176l1.952-1.216 2.144-2.176c0.768-0.544 1.952-0.896 4.544-0.896l-1.472-1.504A445.984 445.984 0 0 0 512 63.968v0.064z m-10.24 356.064v2.144s2.144-2.144 4.32-2.144a4.32 4.32 0 0 1-1.088 2.848l-1.6 1.92c-0.448 0.96-0.064 2.016 2.688 3.84v2.176c0 1.056-1.088 2.144-2.432 3.2l-4.032 3.264 0.64 1.6 3.648 2.688h2.176v2.176c2.144 0 4.288 2.144 6.464 2.144h8.64l2.144 2.176h2.144c2.144 0 2.144 4.288 4.32 6.464 2.144 0 6.4 0 8.576 2.144 2.144 2.144 4.288 4.32 6.464 4.32h2.144c6.464-2.176 0-4.32 2.144-8.64 2.176-2.144 8.64-6.464 12.896-4.288 2.144 0 0 2.144 2.144 2.144 2.176 0 4.32 0 6.464 2.144h2.176s0 2.176 2.144 2.176h6.464c2.176 0 4.32 0 8.576 2.144h4.32s2.144 2.144 4.32 0c0 0 2.144 0 2.144-2.144 2.144-2.176 6.464-2.176 10.784-2.176 0 1.6 0 2.048 0.864 2.176h5.536c0.864 0.864 2.048 1.056 3.232 0.96l3.232-0.96c0.544 1.6 0.64 4.032 0.704 6.88l0.128 9.856c0.256 7.136 1.344 15.104 5.6 21.568l2.144 6.464c2.144 2.176 4.32 4.32 4.32 8.64 0 4.288 0 10.784 2.144 12.928l1.024 1.28 4.416 1.728c0.608 0.384 1.024 0.768 1.024 1.28 0 3.264 1.6 6.496 3.232 8.928l3.232 4.032 4.32 2.144c2.144 2.176 6.464 4.32 6.464 6.464l1.6 2.272c0.32 0.64 0.512 1.344 0.512 2.048 2.144 2.144 6.464 2.144 6.464 6.464l1.824 4.704c0.64 1.44 1.472 2.784 2.496 3.968l4.64-1.376c0.704-0.224 1.44-0.384 2.208-0.544l3.936-0.48 10.656-1.696a19.136 19.136 0 0 1 2.144-0.256h2.88l-0.128 1.088a21.376 21.376 0 0 1-2.752 4.96l-6.464 9.408-7.36 10.368-5.728 7.584a24.096 24.096 0 0 1-1.408 1.6c-4.288 4.32-8.64 6.496-12.864 8.64a31.648 31.648 0 0 1-3.776 5.344l-4.704 5.28-13.024 13.12-4.32 10.816 0.64 1.6 3.68 2.688v15.104c0 2.144 4.288 2.144 4.288 4.32l0.192 7.648 0.576 7.904c0.32 2.272 0.768 3.904 1.408 3.904l-1.664 3.776c-1.472 3.104-3.52 7.008-4.864 7.008-4.256 2.144-8.576 2.144-10.72 4.288l-4.864 4.768c-3.104 2.88-6.72 6.016-8.064 6.016 0 2.176 2.144 4.32 2.144 6.464v6.464h2.144v10.784c-1.6 3.232-4.416 4.064-7.52 5.184l-3.2 1.28c-1.056 0-2.144 1.088-2.944 2.176l-1.344 2.144 2.144 2.144c0 2.176 0 6.496-2.144 8.64v4.32c0 2.144-4.32 4.288-6.496 4.288a47.2 47.2 0 0 1-8.64 10.752l-10.112 9.376c-1.6 1.6-2.688 2.688-2.688 3.104l-4.096 0.288c-1.344 0.256-2.368 0.8-2.368 1.888v2.144h-4.32c-2.144 0-4.288-2.144-6.464-2.144l-8.64 2.144-1.696 0.224-6.848 1.92-8.64-4.288-2.144-6.464h2.144c2.176-4.32-2.144-8.64-4.288-10.784-2.176-4.32-2.176-8.64-4.32-10.784l-6.464-6.464-0.32-1.92-1.792-4.608-1.728-10.496a23.712 23.712 0 0 0-2.56-8.384c0.832-0.832 0.672-2.048 0-3.488l-4.32-7.264-6.848-12.608a16.064 16.064 0 0 1-1.792-4.096v-10.784l1.28-2.336 1.76-7.104a19.136 19.136 0 0 1 1.28-3.52l4.192-6.08a13.792 13.792 0 0 0 2.272-4.672v-4.32l-0.48-1.28-2.24-3.104c-1.056-1.6-1.6-3.2 0.576-4.288 0-4.32-2.176-8.64-2.176-10.784l-7.68-12.896a33.952 33.952 0 0 0-3.104-4.288 12.8 12.8 0 0 0-2.144-4.32l-6.464-8.672c1.6 0 2.048-1.248 2.144-2.688v-8.096l2.176-4.32-12.896-12.928c-2.144 2.144-8.64 0-8.64-4.32v-2.144h-2.144v-2.176l-2.368-1.344a22.272 22.272 0 0 1-4.032-2.944h-12.928c-2.176 0-2.176 2.144-2.176 2.144h-4.288c-4.32 2.144-6.464 2.144-10.752 4.32l-4.288-2.176h-10.784c-2.144 0-4.32 0-6.464 2.176-2.176 0-4.256 2.144-6.4 2.144l-1.92-0.384-4.576-1.76a29.696 29.696 0 0 1-8.64-6.464c-2.144 0-2.144-2.176-4.288-2.176-2.816 4.32-3.776 4.768-4.736 4.64l-1.6-0.32v-2.144a4.64 4.64 0 0 1-4.32-4.32h2.144v-2.144c0-2.176-2.144-2.176-2.144-2.176v-2.144l-2.176-0.544-2.144-1.6v-2.176h-2.688c0-1.6 0-2.048 0.864-2.144h-3.04s-2.144 0-2.144-2.176c-2.144 0 0 0-2.144-2.144v-5.92c-2.176 0-2.176-4.32-4.32-6.464 2.144 0 4.32-4.32 4.32-6.464v-4.32c2.144-4.32 4.288-10.848 0-12.992 2.144-2.144 2.144-8.64-2.176-8.64v-6.464l2.176-2.144c0-2.144 2.144-4.32 2.144-8.64 0-2.144 4.32-2.144 4.32-4.288v-2.176c0-1.44 0.896-2.88 1.6-4.288l0.544-2.176c0-2.144 2.144-2.144 4.32-2.144l1.216-1.92 1.728-3.84c0.384-0.448 0.768-0.704 1.28-0.704 2.176 0 4.352 0 6.496-2.176l10.784-8.608 0.544-2.88-1.184-4.128 0.576-1.6c0-2.176 2.144-2.176 2.144-4.32v-1.088l4.32-4.32c2.176-2.144 6.464-2.144 8.64-4.288l1.056-1.792 1.408-4.48c0.448-1.408 0.96-2.432 1.824-2.432h2.176c2.144 2.176 2.144 4.32 4.288 4.32h8.64c0 2.176 2.112 2.176 6.4 2.176 2.176 0 2.176-2.176 4.32-2.176l4.32-2.144h2.144l4.32-4.32h15.04c4.32 0 6.464 2.144 8.64 0 2.144 0 2.144-2.144 4.288-2.144l2.144 2.144s2.112 0 2.112-2.144c2.144 0 2.144 2.144 2.144 2.144 2.176 0 6.496-2.144 8.64-2.144h4.32-0.064z m189.856 250.752l2.176 0.288c0.544 0.096 1.088 0.32 1.44 0.576l1.6 3.232 0.32 5.632 0.96 3.2s0 2.176 2.144 2.176a20.224 20.224 0 0 1-1.664 4.864l-4.864 10.24c-2.112 8.608-4.256 17.216-8.576 25.312 0 2.144-2.144 10.784-4.288 10.784-2.176 0-6.464 2.144-8.64 2.144-2.144-2.144-4.32-2.144-6.4-4.288l-1.088-2.432a12.928 12.928 0 0 1-1.088-4.064l-1.376-4.608a19.392 19.392 0 0 1-0.768-4c2.144 2.688 4.32 0.544 4.32-1.6l1.6-2.336c1.728-2.688 4.096-7.008 2.688-8.448l-2.784-6.048a17.6 17.6 0 0 1-1.504-4.736l0.32-1.344 1.504-2.592a8.352 8.352 0 0 0 0.32-2.56l5.12-2.496c6.24-3.072 11.84-7.36 16.384-12.576 2.144 0 2.144-4.32 2.144-4.32z m15.104-320.32c-2.144 0-4.32 2.144-6.464 4.288h-2.144c-2.176 0-2.176 2.176-4.32 2.176v2.144c-2.176 0-2.176 2.144-4.32 2.144 0 1.6 0 3.232-0.928 4l-1.216 0.384s-2.176 0-2.176 2.144h2.176c1.056 0 1.6 0.544 1.888 1.344l0.16 0.864-0.224 1.024c-0.48 1.6-1.28 3.232 0.32 4.864v2.144l1.6 2.24c0.32 0.64 0.544 1.312 0.544 2.08l2.176 2.144v2.176s0 2.144 2.144 2.144l0.64 0.928 2.976 0.256c0.448 0.16 0.704 0.416 0.704 0.96-2.912-1.44-3.84 0-4.16 2.368l-0.16 6.272c0 2.144-2.144 6.464 0 10.784 2.176 0 4.32 0 6.464 2.144 1.696 3.456 6.144 4.16 11.2 4.32h8.096c1.344 0 1.088-2.336 0.64-4.224l-0.576-2.24v-7.04s-2.144 0-2.144-2.144h-6.496v-3.776h2.176v2.176h4.32v-2.176h2.144c0-2.144-2.144-2.144-4.32-2.144v-4.32h-4.32v-6.464s0-2.144 2.176-4.32c-2.176-2.144-2.176 0-4.32 0 0 0 0-2.144-2.144-2.144h-2.176c0-2.144-2.144-4.32-2.144-6.464h-4.32v-2.144h6.464s-2.144 0-2.144-2.176l2.144-2.144v-1.6h8.64s-2.176 0-2.176-2.176c1.632-1.6 2.048-2.048 2.176-4v-4.672h-4.32c-2.144 0-2.144-2.176-4.32-2.176h0.064z"></path>
</svg>