<svg width="2001" height="2001" viewBox="520 520 980 980"><path d="M 1000.921875 499.050781 C 1139.269531 499.050781 1264.53125 555.128906 1355.199219 645.800781 C 1445.871094 736.46875 1501.949219 861.730469 1501.949219 1000.078125 C 1501.949219 1138.433594 1445.871094 1263.6875 1355.199219 1354.359375 C 1264.53125 1445.027344 1139.269531 1501.105469 1000.921875 1501.105469 C 862.566406 1501.105469 737.3125 1445.027344 646.640625 1354.359375 C 555.972656 1263.6875 499.894531 1138.433594 499.894531 1000.078125 C 499.894531 861.730469 555.972656 736.46875 646.640625 645.800781 C 737.3125 555.128906 862.566406 499.050781 1000.921875 499.050781 Z M 611.921875 1253.1875 C 654.585938 1239.394531 697.273438 1227.875 739.976562 1218.625 C 722.886719 1157.796875 712.699219 1090.101562 711.195312 1018.570312 L 537.238281 1018.570312 C 540.621094 1104.929688 567.609375 1185.222656 611.921875 1253.1875 Z M 775.703125 1211.414062 C 844.5625 1198.546875 913.472656 1191.578125 982.429688 1190.527344 L 982.429688 1018.570312 L 748.195312 1018.570312 C 749.675781 1087.835938 759.441406 1153.1875 775.703125 1211.414062 Z M 1019.410156 1190.53125 C 1088.210938 1191.59375 1157.019531 1198.546875 1225.839844 1211.394531 C 1242.308594 1153.128906 1252.160156 1087.8125 1253.660156 1018.570312 L 1019.410156 1018.570312 Z M 1262.128906 1218.71875 C 1304.71875 1227.953125 1347.308594 1239.445312 1389.910156 1253.199219 C 1434.230469 1185.230469 1461.21875 1104.933594 1464.601562 1018.570312 L 1290.648438 1018.570312 C 1289.160156 1090.136719 1279.058594 1157.902344 1262.128906 1218.71875 Z M 1367.429688 1284.730469 C 1328.691406 1272.589844 1289.96875 1262.371094 1251.261719 1254.078125 C 1239.398438 1289.171875 1225.171875 1321.484375 1208.960938 1350.3125 C 1187.871094 1387.800781 1163.371094 1419.527344 1136.261719 1444.070312 C 1209.988281 1421.625 1275.929688 1381.332031 1329.050781 1328.210938 C 1342.71875 1314.539062 1355.550781 1300.019531 1367.429688 1284.730469 Z M 1214.71875 1246.820312 C 1149.570312 1234.890625 1084.46875 1228.414062 1019.410156 1227.375 L 1019.410156 1462.867188 C 1079.960938 1454.621094 1135.109375 1406.261719 1176.738281 1332.257812 C 1191.179688 1306.59375 1203.941406 1277.929688 1214.71875 1246.820312 Z M 982.429688 1227.371094 C 917.179688 1228.394531 851.941406 1234.894531 786.707031 1246.855469 C 828.382812 1368.375 899.910156 1451.945312 982.429688 1462.886719 Z M 750.945312 1253.964844 C 712.09375 1262.277344 673.242188 1272.527344 634.394531 1284.714844 C 646.285156 1300.007812 659.109375 1314.535156 672.789062 1328.210938 C 726.238281 1381.664062 792.675781 1422.128906 866.953125 1444.488281 C 818.730469 1400.984375 778.472656 1334.726562 750.945312 1253.964844 Z M 634.394531 715.441406 C 673.117188 727.589844 711.84375 737.820312 750.570312 746.121094 C 762.429688 711.011719 776.660156 678.679688 792.882812 649.851562 C 813.96875 612.359375 838.472656 580.628906 865.574219 556.089844 C 791.855469 578.53125 725.910156 618.828125 672.789062 671.949219 C 659.109375 685.621094 646.285156 700.148438 634.394531 715.441406 Z M 787.105469 753.378906 C 852.203125 765.289062 917.3125 771.769531 982.429688 772.789062 L 982.429688 537.289062 C 921.882812 545.539062 866.726562 593.898438 825.097656 667.898438 C 810.65625 693.570312 797.890625 722.25 787.105469 753.378906 Z M 1019.410156 772.789062 C 1084.601562 771.738281 1149.839844 765.238281 1215.121094 753.269531 C 1173.441406 631.769531 1101.921875 548.210938 1019.410156 537.269531 Z M 1250.878906 746.160156 C 1289.71875 737.859375 1328.570312 727.609375 1367.429688 715.429688 C 1355.550781 700.140625 1342.71875 685.621094 1329.050781 671.949219 C 1275.601562 618.5 1209.171875 578.03125 1134.890625 555.671875 C 1183.101562 599.171875 1223.351562 665.421875 1250.878906 746.160156 Z M 1389.910156 746.960938 C 1347.21875 760.738281 1304.539062 772.261719 1261.851562 781.5 C 1278.949219 842.328125 1289.140625 910.039062 1290.640625 981.589844 L 1464.601562 981.589844 C 1461.21875 895.230469 1434.230469 814.929688 1389.910156 746.960938 Z M 1226.128906 788.710938 C 1157.210938 801.589844 1088.308594 808.558594 1019.410156 809.628906 L 1019.410156 981.589844 L 1253.640625 981.589844 C 1252.160156 912.308594 1242.398438 846.949219 1226.128906 788.710938 Z M 982.429688 809.628906 C 913.566406 808.578125 844.75 801.628906 775.988281 788.800781 C 759.527344 847.058594 749.675781 912.359375 748.179688 981.589844 L 982.429688 981.589844 Z M 739.703125 781.480469 C 697.089844 772.238281 654.496094 760.730469 611.921875 746.96875 C 567.609375 814.941406 540.621094 895.230469 537.238281 981.589844 L 711.195312 981.589844 C 712.683594 910.039062 722.777344 842.28125 739.703125 781.480469 "/>
</svg>
