<svg viewBox="0 0 1024 1024"><path d="M512 294.66256433c-115.081846 0-208.738462 92.632615-208.738462 206.375384 0 113.900308 93.656615 206.454154 208.738462 206.454154 11.185231 0 23.079385-1.102769 37.336615-3.623384a38.912 38.912 0 0 0 31.665231-45.13477 39.069538 39.069538 0 0 0-45.686154-31.271384 133.907692 133.907692 0 0 1-23.236923 2.441846 129.654154 129.654154 0 0 1-130.205538-128.787692c0-71.049846 58.289231-128.787692 129.969231-128.787693 71.837538 0 130.205538 57.737846 130.205538 128.787693 0 6.931692-0.787692 14.178462-2.363077 22.921846a38.912 38.912 0 0 0 38.754462 45.843692c18.983385 0 35.209846-13.390769 38.518153-31.901538 2.520615-13.390769 3.702154-25.206154 3.702154-36.864 0-55.059692-21.661538-106.889846-61.124923-145.880616A208.502154 208.502154 0 0 0 512 294.66256433z"></path><path d="M1014.784 406.27856433a34.658462 34.658462 0 0 0-26.545231-27.175385 177.467077 177.467077 0 0 1-115.318154-84.046769 174.237538 174.237538 0 0 1-16.068923-140.524308 33.949538 33.949538 0 0 0-10.476307-36.233846A511.842462 511.842462 0 0 0 679.936 23.30256433a35.052308 35.052308 0 0 0-37.021538 9.058461A178.176 178.176 0 0 1 512 88.91733333a178.333538 178.333538 0 0 1-131.072-56.713846 35.761231 35.761231 0 0 0-37.021538-8.979692A511.606154 511.606154 0 0 0 177.388308 118.21948733a34.264615 34.264615 0 0 0-10.476308 35.997538c14.808615 47.734154 9.137231 97.673846-15.911385 140.681846A177.152 177.152 0 0 1 35.761231 379.02441033a34.894769 34.894769 0 0 0-26.545231 27.254154C3.150769 438.18010233 0 470.08164133 0 501.03794833c0 31.035077 3.150769 62.936615 9.216 94.838154a34.658462 34.658462 0 0 0 26.545231 27.175385c49.230769 11.106462 90.112 40.96 115.318154 83.968 25.048615 43.008 30.72 92.947692 15.911384 140.681846a34.658462 34.658462 0 0 0 10.555077 36.155077 512.472615 512.472615 0 0 0 166.360616 94.995692 35.209846 35.209846 0 0 0 36.942769-8.979692 178.412308 178.412308 0 0 1 131.072-56.713846c50.097231 0 96.649846 20.164923 130.993231 56.713846a35.052308 35.052308 0 0 0 37.100307 9.058461 512.551385 512.551385 0 0 0 166.360616-94.995692 34.500923 34.500923 0 0 0 10.555077-36.155077 173.607385 173.607385 0 0 1 15.990153-140.603077 176.994462 176.994462 0 0 1 115.318154-84.046769 34.894769 34.894769 0 0 0 26.545231-27.175385A504.123077 504.123077 0 0 0 1024 501.19548733c0-31.113846-3.150769-63.015385-9.216-94.916923z m-246.547692 419.367384c-30.562462 23.630769-64.275692 42.929231-100.352 57.265231a236.937846 236.937846 0 0 0-311.926154 0 414.798769 414.798769 0 0 1-100.352-57.265231 228.824615 228.824615 0 0 0-26.781539-162.816 234.259692 234.259692 0 0 0-129.339077-104.36923 399.123692 399.123692 0 0 1 0-114.76677 234.259692 234.259692 0 0 0 129.339077-104.290461 230.006154 230.006154 0 0 0 26.781539-162.816c30.483692-23.630769 64.275692-42.929231 100.352-57.344 43.323077 37.809231 98.382769 58.604308 155.963077 58.604308 57.737846 0 112.876308-20.716308 155.963077-58.525539 36.076308 14.414769 69.789538 33.713231 100.352 57.344-11.500308 55.926154-2.126769 113.506462 26.624 162.816a234.259692 234.259692 0 0 0 129.417846 104.369231 400.462769 400.462769 0 0 1 0.078769 114.609231 234.259692 234.259692 0 0 0-129.417846 104.36923 230.4 230.4 0 0 0-26.702769 162.816z"></path></svg>