<svg viewBox="0 0 1024 1024"><path d="M950.613333 475.562667c40.448 0 73.301333 32.682667 73.301334 73.045333V1024H731.306667V548.693333c0-40.362667 32.682667-73.130667 73.045333-73.130666h146.261333zM585.216 0c40.192 0 72.96 32.682667 72.96 72.96V1024H365.824V73.216A73.045333 73.045333 0 0 1 438.528 0h146.602667zM219.306667 292.693333a72.96 72.96 0 0 1 73.216 72.874667V1024H0V365.824c0-40.362667 32.682667-73.045333 73.045333-73.216H219.306667z m701.013333 268.202667h-85.248a18.346667 18.346667 0 0 0-18.346667 18.090667v359.765333h121.856V579.157333a18.261333 18.261333 0 0 0-18.261333-18.261333zM554.581333 85.333333h-85.333333a18.346667 18.346667 0 0 0-18.090667 18.261334V938.666667h121.6V103.594667A18.261333 18.261333 0 0 0 554.581333 85.333333zM181.76 378.026667H110.933333a25.6 25.6 0 0 0-25.6 25.6V938.666667h122.026667V403.626667a25.6 25.6 0 0 0-25.6-25.6z"></path></svg>